<?xml version="1.0" encoding="UTF-8"?>
<!DOCTYPE svg PUBLIC "-//W3C//DTD SVG 1.1//EN" "http://www.w3.org/Graphics/SVG/1.1/DTD/svg11.dtd">
<svg xmlns="http://www.w3.org/2000/svg" version="1.1" width="512px" height="512px" style="shape-rendering:geometricPrecision; text-rendering:geometricPrecision; image-rendering:optimizeQuality; fill-rule:evenodd; clip-rule:evenodd" xmlns:xlink="http://www.w3.org/1999/xlink">
<g><path style="opacity:0.969" fill="#010100" d="M 134.5,-0.5 C 215.167,-0.5 295.833,-0.5 376.5,-0.5C 377.836,1.01027 379.003,2.67694 380,4.5C 380.667,37.5 380.667,70.5 380,103.5C 379.167,106.333 377.333,108.167 374.5,109C 337.502,109.5 300.502,109.667 263.5,109.5C 263.5,116.5 263.5,123.5 263.5,130.5C 262.945,133.787 261.278,136.287 258.5,138C 221.168,138.5 183.835,138.667 146.5,138.5C 146.5,164.833 146.5,191.167 146.5,217.5C 218.998,218.499 291.665,218.833 364.5,218.5C 364.5,191.833 364.5,165.167 364.5,138.5C 337.833,138.5 311.167,138.5 284.5,138.5C 280.334,137.535 278.001,134.868 277.5,130.5C 277.933,127.805 279.266,125.638 281.5,124C 313.586,123.015 345.586,123.348 377.5,125C 378.893,126.171 379.727,127.671 380,129.5C 380.667,162.167 380.667,194.833 380,227.5C 379.602,230.232 378.102,232.065 375.5,233C 338.168,233.5 300.835,233.667 263.5,233.5C 263.5,238.167 263.5,242.833 263.5,247.5C 305.835,247.333 348.168,247.5 390.5,248C 393.102,248.935 394.602,250.768 395,253.5C 395.5,261.493 395.666,269.493 395.5,277.5C 432.835,277.333 470.168,277.5 507.5,278C 508.705,279.376 510.038,280.542 511.5,281.5C 511.5,315.5 511.5,349.5 511.5,383.5C 510.684,385.144 509.35,386.31 507.5,387C 470.168,387.5 432.835,387.667 395.5,387.5C 395.5,392.167 395.5,396.833 395.5,401.5C 432.502,401.333 469.502,401.5 506.5,402C 508.323,402.997 509.99,404.164 511.5,405.5C 511.5,439.833 511.5,474.167 511.5,508.5C 510.167,509.167 509.167,510.167 508.5,511.5C 427.833,511.5 347.167,511.5 266.5,511.5C 265.542,510.038 264.376,508.705 263,507.5C 262.333,473.833 262.333,440.167 263,406.5C 263.465,405.069 264.299,403.903 265.5,403C 303.439,401.518 341.439,401.018 379.5,401.5C 379.5,396.833 379.5,392.167 379.5,387.5C 341.832,387.667 304.165,387.5 266.5,387C 264.951,385.786 263.785,384.286 263,382.5C 262.333,349.167 262.333,315.833 263,282.5C 263.833,280.333 265.333,278.833 267.5,278C 304.832,277.5 342.165,277.333 379.5,277.5C 379.5,272.833 379.5,268.167 379.5,263.5C 296.833,263.5 214.167,263.5 131.5,263.5C 131.5,268.167 131.5,272.833 131.5,277.5C 168.835,277.333 206.168,277.5 243.5,278C 245.667,278.833 247.167,280.333 248,282.5C 248.667,315.833 248.667,349.167 248,382.5C 247.215,384.286 246.049,385.786 244.5,387C 206.835,387.5 169.168,387.667 131.5,387.5C 131.5,392.167 131.5,396.833 131.5,401.5C 169.561,401.018 207.561,401.518 245.5,403C 246.701,403.903 247.535,405.069 248,406.5C 248.667,439.833 248.667,473.167 248,506.5C 247.003,508.323 245.836,509.99 244.5,511.5C 163.833,511.5 83.1667,511.5 2.5,511.5C 1.83333,510.167 0.833333,509.167 -0.5,508.5C -0.5,474.167 -0.5,439.833 -0.5,405.5C 1.01027,404.164 2.67694,402.997 4.5,402C 41.4985,401.5 78.4985,401.333 115.5,401.5C 115.5,396.833 115.5,392.167 115.5,387.5C 78.1652,387.667 40.8318,387.5 3.5,387C 1.64977,386.31 0.316435,385.144 -0.5,383.5C -0.5,349.5 -0.5,315.5 -0.5,281.5C 0.639972,280.199 1.97331,279.032 3.5,278C 40.8318,277.5 78.1652,277.333 115.5,277.5C 115.086,268.418 115.586,259.418 117,250.5C 117.903,249.299 119.069,248.465 120.5,248C 162.832,247.5 205.165,247.333 247.5,247.5C 247.5,242.833 247.5,238.167 247.5,233.5C 210.165,233.667 172.832,233.5 135.5,233C 132.898,232.065 131.398,230.232 131,227.5C 130.333,194.833 130.333,162.167 131,129.5C 131.398,126.768 132.898,124.935 135.5,124C 172.832,123.5 210.165,123.333 247.5,123.5C 247.5,118.833 247.5,114.167 247.5,109.5C 210.498,109.667 173.498,109.5 136.5,109C 133.667,108.167 131.833,106.333 131,103.5C 130.333,70.5 130.333,37.5 131,4.5C 131.997,2.67694 133.164,1.01027 134.5,-0.5 Z"/></g>
<g><path style="opacity:1" fill="#f8eca3" d="M 342.5,14.5 C 342.5,40.8333 342.5,67.1667 342.5,93.5C 277.167,93.5 211.833,93.5 146.5,93.5C 146.5,67.1667 146.5,40.8333 146.5,14.5C 211.833,14.5 277.167,14.5 342.5,14.5 Z"/></g>
<g><path style="opacity:1" fill="#f2da48" d="M 342.5,14.5 C 349.833,14.5 357.167,14.5 364.5,14.5C 364.5,40.8333 364.5,67.1667 364.5,93.5C 357.167,93.5 349.833,93.5 342.5,93.5C 342.5,67.1667 342.5,40.8333 342.5,14.5 Z"/></g>
<g><path style="opacity:1" fill="#f2d948" d="M 263.5,130.5 C 268.167,130.5 272.833,130.5 277.5,130.5C 278.001,134.868 280.334,137.535 284.5,138.5C 303.659,139.497 322.993,139.83 342.5,139.5C 342.5,165.5 342.5,191.5 342.5,217.5C 277.167,217.5 211.833,217.5 146.5,217.5C 146.5,191.167 146.5,164.833 146.5,138.5C 183.835,138.667 221.168,138.5 258.5,138C 261.278,136.287 262.945,133.787 263.5,130.5 Z"/></g>
<g><path style="opacity:1" fill="#eaab43" d="M 284.5,138.5 C 311.167,138.5 337.833,138.5 364.5,138.5C 364.5,165.167 364.5,191.833 364.5,218.5C 291.665,218.833 218.998,218.499 146.5,217.5C 211.833,217.5 277.167,217.5 342.5,217.5C 342.5,191.5 342.5,165.5 342.5,139.5C 322.993,139.83 303.659,139.497 284.5,138.5 Z"/></g>
<g><path style="opacity:1" fill="#784020" d="M 496.5,293.5 C 488.833,293.5 481.167,293.5 473.5,293.5C 408.5,293.5 343.5,293.5 278.5,293.5C 278.5,319.833 278.5,346.167 278.5,372.5C 277.502,346.005 277.169,319.339 277.5,292.5C 350.669,292.167 423.669,292.501 496.5,293.5 Z"/></g>
<g><path style="opacity:1" fill="#f8b247" d="M 14.5,293.5 C 79.8333,293.5 145.167,293.5 210.5,293.5C 210.5,319.5 210.5,345.5 210.5,371.5C 217.833,371.5 225.167,371.5 232.5,371.5C 232.5,371.833 232.5,372.167 232.5,372.5C 159.833,372.5 87.1667,372.5 14.5,372.5C 14.5,346.167 14.5,319.833 14.5,293.5 Z"/></g>
<g><path style="opacity:1" fill="#fe8b46" d="M 210.5,293.5 C 217.833,293.5 225.167,293.5 232.5,293.5C 232.5,319.5 232.5,345.5 232.5,371.5C 225.167,371.5 217.833,371.5 210.5,371.5C 210.5,345.5 210.5,319.5 210.5,293.5 Z"/></g>
<g><path style="opacity:1" fill="#794a22" d="M 14.5,293.5 C 87.3314,292.501 160.331,292.167 233.5,292.5C 233.831,319.339 233.498,346.005 232.5,372.5C 232.5,372.167 232.5,371.833 232.5,371.5C 232.5,345.5 232.5,319.5 232.5,293.5C 225.167,293.5 217.833,293.5 210.5,293.5C 145.167,293.5 79.8333,293.5 14.5,293.5 Z"/></g>
<g><path style="opacity:1" fill="#fe8a46" d="M 473.5,293.5 C 473.5,319.5 473.5,345.5 473.5,371.5C 481.167,371.5 488.833,371.5 496.5,371.5C 424.002,372.499 351.335,372.833 278.5,372.5C 278.5,346.167 278.5,319.833 278.5,293.5C 343.5,293.5 408.5,293.5 473.5,293.5 Z"/></g>
<g><path style="opacity:1" fill="#ff6633" d="M 473.5,293.5 C 481.167,293.5 488.833,293.5 496.5,293.5C 496.5,319.5 496.5,345.5 496.5,371.5C 488.833,371.5 481.167,371.5 473.5,371.5C 473.5,345.5 473.5,319.5 473.5,293.5 Z"/></g>
<g><path style="opacity:1" fill="#93e367" d="M 210.5,417.5 C 210.5,443.833 210.5,470.167 210.5,496.5C 145.167,496.5 79.8333,496.5 14.5,496.5C 14.5,470.167 14.5,443.833 14.5,417.5C 79.8333,417.5 145.167,417.5 210.5,417.5 Z"/></g>
<g><path style="opacity:1" fill="#5ec958" d="M 210.5,417.5 C 218.167,417.5 225.833,417.5 233.5,417.5C 233.5,443.833 233.5,470.167 233.5,496.5C 225.833,496.5 218.167,496.5 210.5,496.5C 210.5,470.167 210.5,443.833 210.5,417.5 Z"/></g>
<g><path style="opacity:1" fill="#13cefe" d="M 473.5,417.5 C 473.5,443.833 473.5,470.167 473.5,496.5C 408.167,496.5 342.833,496.5 277.5,496.5C 277.5,470.167 277.5,443.833 277.5,417.5C 342.833,417.5 408.167,417.5 473.5,417.5 Z"/></g>
<g><path style="opacity:1" fill="#27abfa" d="M 473.5,417.5 C 481.167,417.5 488.833,417.5 496.5,417.5C 496.5,443.833 496.5,470.167 496.5,496.5C 488.833,496.5 481.167,496.5 473.5,496.5C 473.5,470.167 473.5,443.833 473.5,417.5 Z"/></g>
</svg>
